<?xml version="1.0" standalone="no"?>
<!DOCTYPE svg PUBLIC "-//W3C//DTD SVG 20010904//EN"
 "http://www.w3.org/TR/2001/REC-SVG-20010904/DTD/svg10.dtd">
<svg version="1.0" xmlns="http://www.w3.org/2000/svg"
 width="700.000000pt" height="700.000000pt" viewBox="0 0 700.000000 700.000000"
 preserveAspectRatio="xMidYMid meet">
<metadata>
Created by potrace 1.14, written by Peter Selinger 2001-2017
</metadata>
<g transform="translate(0.000000,700.000000) scale(0.100000,-0.100000)"
fill="#000000" stroke="none">
<path d="M985 5901 c-119 -35 -197 -91 -264 -192 -81 -122 -74 80 -76 -2189
-2 -1684 0 -2035 12 -2084 37 -162 169 -296 336 -341 79 -21 4936 -21 5016 1
159 43 288 170 331 328 16 56 17 217 16 2091 l-2 2030 -21 58 c-61 163 -191
276 -352 307 -36 7 -873 10 -2495 9 -2293 0 -2445 -1 -2501 -18z m1176 -1320
c21 -11 47 -28 57 -38 10 -10 36 -31 57 -48 49 -38 653 -520 680 -543 16 -13
152 -121 223 -177 7 -5 18 -15 25 -20 7 -6 37 -30 67 -55 68 -56 76 -65 100
-115 38 -79 17 -181 -51 -243 -29 -26 -138 -114 -303 -246 -39 -31 -89 -71
-156 -125 -290 -235 -671 -534 -697 -546 -78 -37 -194 -9 -252 62 -56 68 -65
177 -21 249 12 19 77 78 143 132 67 53 124 99 127 102 3 3 36 30 75 60 38 30
79 62 90 72 22 18 171 137 229 183 21 17 46 37 56 45 10 8 61 49 113 90 53 41
96 77 96 80 0 3 -201 165 -446 360 -245 195 -456 366 -469 380 -33 34 -53 80
-58 130 -16 168 165 289 315 211z m2854 -1761 c165 -82 165 -308 1 -389 l-50
-25 -575 0 c-392 -1 -589 3 -619 10 -156 40 -213 232 -104 354 68 76 57 75
717 75 l580 0 50 -25z"/>
</g>
</svg>
